<svg width="140" height="30" viewBox="0 0 140 30" fill="none" xmlns="http://www.w3.org/2000/svg">
<path d="M22.4191 13.371C22.0401 13.7523 21.7498 14.2125 21.569 14.7187C21.3882 15.225 21.3213 15.7649 21.373 16.3L21.355 16.282C21.4082 16.9119 21.3232 17.5457 21.1061 18.1394C20.889 18.733 20.5451 19.2721 20.0982 19.7191C19.6512 20.166 19.112 20.5101 18.5183 20.7271C17.9247 20.9442 17.2908 21.0292 16.661 20.976L16.6791 20.994C15.9257 20.9239 15.1689 21.0878 14.512 21.4635C13.8552 21.8392 13.3302 22.4083 13.0087 23.0933C12.6872 23.7783 12.5847 24.5457 12.7153 25.2911C12.846 26.0364 13.2033 26.7233 13.7386 27.2581C14.2739 27.7929 14.9611 28.1496 15.7065 28.2795C16.452 28.4095 17.2193 28.3063 17.904 27.9842C18.5887 27.662 19.1573 27.1366 19.5324 26.4794C19.9075 25.8222 20.0708 25.0654 20 24.312L20.019 24.33C19.9658 23.7002 20.0507 23.0663 20.2678 22.4726C20.4849 21.879 20.829 21.3399 21.2759 20.8929C21.7229 20.446 22.262 20.1019 22.8556 19.8849C23.4493 19.6678 24.0831 19.5828 24.713 19.636L24.694 19.618C25.3094 19.6733 25.929 19.5724 26.4951 19.3246C27.0611 19.0768 27.5554 18.6901 27.9322 18.2004C28.309 17.7107 28.5563 17.1337 28.6507 16.5231C28.7452 15.9124 28.6839 15.2878 28.4727 14.707C28.2615 14.1263 27.9071 13.6083 27.4424 13.201C26.9777 12.7937 26.4178 12.5103 25.8144 12.3771C25.211 12.2439 24.5837 12.2651 23.9907 12.4388C23.3977 12.6126 22.8582 12.9332 22.4221 13.371H22.4191Z" fill="#AAAAAA"/>
<path d="M15.0419 18.636L15.0229 18.618C15.5582 18.6719 16.0988 18.6062 16.6057 18.4256C17.1125 18.245 17.5729 17.9541 17.9535 17.5738C18.334 17.1935 18.6254 16.7333 18.8063 16.2266C18.9873 15.7199 19.0534 15.1794 18.9999 14.644L19.0189 14.662C18.9657 14.0321 19.0507 13.3983 19.2677 12.8046C19.4848 12.211 19.8289 11.6719 20.2758 11.2249C20.7228 10.778 21.2619 10.4339 21.8555 10.2169C22.4492 9.99976 23.083 9.91483 23.7129 9.968L23.6939 9.95C24.4474 10.0208 25.2043 9.85736 25.8615 9.4821C26.5188 9.10684 27.0442 8.53797 27.3662 7.8531C27.6882 7.16824 27.7911 6.40071 27.6609 5.6552C27.5307 4.90969 27.1737 4.22251 26.6385 3.68737C26.1034 3.15224 25.4162 2.7952 24.6707 2.66498C23.9252 2.53475 23.1577 2.63766 22.4728 2.95968C21.7879 3.28169 21.2191 3.80714 20.8438 4.46435C20.4685 5.12155 20.3051 5.87852 20.3759 6.632L20.3579 6.613C20.4112 7.24289 20.3264 7.87683 20.1094 8.47055C19.8924 9.06427 19.5483 9.60346 19.1014 10.0505C18.6544 10.4974 18.1152 10.8415 17.5215 11.0585C16.9277 11.2755 16.2938 11.3603 15.6639 11.307L15.6819 11.326C15.1466 11.2721 14.6059 11.3378 14.0991 11.5184C13.5923 11.6989 13.1319 11.9899 12.7513 12.3702C12.3707 12.7505 12.0794 13.2107 11.8984 13.7174C11.7175 14.2241 11.6514 14.7646 11.7049 15.3L11.6869 15.282C11.7399 15.9118 11.6548 16.5456 11.4377 17.1392C11.2205 17.7327 10.8765 18.2718 10.4296 18.7187C9.98267 19.1656 9.44363 19.5096 8.85007 19.7268C8.25651 19.9439 7.62272 20.029 6.99291 19.976L7.01091 19.994C6.25743 19.9232 5.50046 20.0866 4.84325 20.4619C4.18605 20.8372 3.6606 21.406 3.33859 22.0909C3.01657 22.7758 2.91365 23.5433 3.04388 24.2888C3.17411 25.0343 3.53115 25.7215 4.06628 26.2566C4.60142 26.7918 5.2886 27.1488 6.03411 27.279C6.77962 27.4092 7.54715 27.3063 8.23202 26.9843C8.91688 26.6623 9.48575 26.1369 9.86101 25.4797C10.2363 24.8224 10.3997 24.0655 10.3289 23.312L10.3479 23.33C10.2947 22.7001 10.3797 22.0663 10.5968 21.4726C10.8138 20.879 11.1579 20.3399 11.6048 19.8929C12.0518 19.446 12.5909 19.1019 13.1845 18.8849C13.7782 18.6678 14.412 18.5828 15.0419 18.636Z" fill="#AAAAAA"/>
<path d="M8.33997 16.629C8.71899 16.2478 9.00917 15.7876 9.18981 15.2813C9.37045 14.775 9.43709 14.235 9.38497 13.7L9.40396 13.718C9.35076 13.088 9.43572 12.4539 9.65293 11.8601C9.87014 11.2663 10.2144 10.7271 10.6616 10.2801C11.1088 9.83312 11.6481 9.48913 12.242 9.27218C12.8359 9.05522 13.47 8.97052 14.1 9.024L14.081 9.006C14.8342 9.07657 15.5909 8.91308 16.2478 8.53784C16.9047 8.16261 17.4298 7.59388 17.7517 6.90923C18.0735 6.22457 18.1763 5.45732 18.0461 4.71209C17.9159 3.96686 17.5589 3.27994 17.024 2.745C16.4891 2.21006 15.8021 1.85314 15.0569 1.72292C14.3117 1.59269 13.5444 1.69551 12.8598 2.01733C12.1751 2.33915 11.6064 2.86432 11.2312 3.52122C10.8559 4.17812 10.6924 4.93478 10.763 5.688L10.745 5.67C10.7982 6.29985 10.7132 6.93372 10.4961 7.52736C10.279 8.121 9.93499 8.66011 9.48803 9.10707C9.04108 9.55403 8.50196 9.89806 7.90832 10.1151C7.31468 10.3322 6.68082 10.4172 6.05097 10.364L6.06897 10.382C5.45354 10.3268 4.83413 10.4279 4.26815 10.6758C3.70217 10.9237 3.20792 11.3105 2.83121 11.8003C2.4545 12.29 2.20752 12.867 2.11314 13.4776C2.01877 14.0883 2.08006 14.7129 2.29133 15.2935C2.5026 15.8742 2.85703 16.3921 3.32176 16.7993C3.78649 17.2066 4.34649 17.4899 4.94987 17.6231C5.55324 17.7562 6.18047 17.7349 6.77344 17.5612C7.3664 17.3874 7.9059 17.0668 8.34196 16.629H8.33997Z" fill="#AAAAAA"/>
<path d="M39.3169 6.655H42.2869V21.108H39.3169V6.655Z" fill="#AAAAAA"/>
<path d="M43.9689 16.159C43.9648 15.1204 44.269 14.1038 44.843 13.2382C45.417 12.3726 46.235 11.6968 47.1934 11.2965C48.1518 10.8961 49.2074 10.7892 50.2266 10.9893C51.2458 11.1894 52.1827 11.6874 52.9186 12.4204C53.6545 13.1533 54.1563 14.0882 54.3605 15.1066C54.5647 16.125 54.462 17.1811 54.0655 18.1411C53.669 19.101 52.9965 19.9218 52.1332 20.4992C51.2698 21.0767 50.2546 21.385 49.2159 21.385C48.5265 21.3929 47.8424 21.2632 47.2036 21.0036C46.5648 20.744 45.9842 20.3597 45.4957 19.8732C45.0071 19.3866 44.6205 18.8075 44.3584 18.1698C44.0962 17.5321 43.9638 16.8485 43.9689 16.159ZM51.4929 16.159C51.4805 15.7113 51.3364 15.2772 51.0787 14.9109C50.8209 14.5447 50.4609 14.2625 50.0437 14.0998C49.6264 13.937 49.1705 13.9008 48.7328 13.9958C48.2951 14.0908 47.8951 14.3126 47.5828 14.6337C47.2706 14.9547 47.0598 15.3607 46.9771 15.8009C46.8943 16.241 46.943 16.6958 47.1173 17.1084C47.2916 17.521 47.5836 17.873 47.9568 18.1205C48.3301 18.368 48.7681 18.5 49.2159 18.5C49.5226 18.5082 49.8277 18.4527 50.112 18.3371C50.3962 18.2215 50.6534 18.0483 50.8673 17.8284C51.0812 17.6084 51.2473 17.3465 51.3549 17.0592C51.4626 16.7719 51.5096 16.4654 51.4929 16.159Z" fill="#AAAAAA"/>
<path d="M66.2999 11.209V20.609C66.2999 23.935 63.7059 25.341 61.0729 25.341C60.1459 25.4104 59.2176 25.2231 58.3899 24.7998C57.5623 24.3764 56.8672 23.7333 56.3809 22.941L58.9149 21.476C59.1193 21.889 59.445 22.2297 59.8483 22.4526C60.2517 22.6754 60.7135 22.7698 61.1719 22.723C61.4649 22.7636 61.7633 22.7378 62.045 22.6475C62.3266 22.5572 62.5844 22.4047 62.7992 22.2014C63.014 21.998 63.1803 21.749 63.2859 21.4726C63.3914 21.1963 63.4334 20.8998 63.4089 20.605V19.7C63.0611 20.1255 62.6185 20.4636 62.1164 20.6871C61.6143 20.9106 61.0669 21.0133 60.5179 20.987C59.2117 20.9458 57.9728 20.398 57.0634 19.4594C56.154 18.5209 55.6455 17.2653 55.6455 15.9585C55.6455 14.6517 56.154 13.3961 57.0634 12.4576C57.9728 11.519 59.2117 10.9712 60.5179 10.93C61.0669 10.9037 61.6143 11.0064 62.1164 11.2299C62.6185 11.4534 63.0611 11.7915 63.4089 12.217V11.207L66.2999 11.209ZM63.4099 15.96C63.4299 15.4814 63.3061 15.0077 63.0546 14.6C62.8031 14.1922 62.4353 13.8691 61.9986 13.6722C61.5619 13.4752 61.0763 13.4135 60.6042 13.4949C60.1321 13.5763 59.6952 13.7971 59.3496 14.129C59.0041 14.4608 58.7658 14.8884 58.6653 15.3568C58.5649 15.8252 58.6069 16.313 58.7861 16.7573C58.9652 17.2016 59.2732 17.5822 59.6704 17.85C60.0676 18.1178 60.5359 18.2606 61.0149 18.26C61.327 18.2818 61.6401 18.238 61.9342 18.1314C62.2283 18.0248 62.4968 17.8577 62.7224 17.6411C62.948 17.4244 63.1258 17.1629 63.2442 16.8733C63.3626 16.5838 63.4191 16.2727 63.4099 15.96Z" fill="#AAAAAA"/>
<path d="M67.9821 16.159C67.978 15.1204 68.2821 14.1038 68.8562 13.2382C69.4302 12.3726 70.2482 11.6968 71.2066 11.2965C72.165 10.8961 73.2206 10.7892 74.2398 10.9893C75.259 11.1894 76.1959 11.6874 76.9318 12.4204C77.6677 13.1533 78.1695 14.0882 78.3737 15.1066C78.5779 16.125 78.4752 17.1811 78.0787 18.1411C77.6822 19.101 77.0097 19.9218 76.1464 20.4992C75.283 21.0767 74.2678 21.385 73.2291 21.385C72.5397 21.3929 71.8555 21.2632 71.2168 21.0036C70.578 20.744 69.9974 20.3597 69.5089 19.8732C69.0203 19.3866 68.6337 18.8075 68.3716 18.1698C68.1094 17.5321 67.977 16.8485 67.9821 16.159ZM75.5061 16.159C75.4937 15.7113 75.3496 15.2772 75.0919 14.9109C74.8341 14.5447 74.4741 14.2625 74.0569 14.0998C73.6396 13.937 73.1836 13.9008 72.746 13.9958C72.3083 14.0908 71.9083 14.3126 71.596 14.6337C71.2838 14.9547 71.073 15.3607 70.9902 15.8009C70.9074 16.241 70.9562 16.6958 71.1305 17.1084C71.3048 17.521 71.5968 17.873 71.97 18.1205C72.3433 18.368 72.7812 18.5 73.2291 18.5C73.5358 18.5082 73.8409 18.4527 74.1251 18.3371C74.4094 18.2215 74.6666 18.0483 74.8805 17.8284C75.0944 17.6084 75.2605 17.3465 75.3681 17.0592C75.4758 16.7719 75.5228 16.4654 75.5061 16.159Z" fill="#AAAAAA"/>
<path d="M79.8611 8.556C79.8611 8.20355 79.9656 7.85902 80.1614 7.56598C80.3572 7.27293 80.6356 7.04452 80.9612 6.90965C81.2868 6.77477 81.6451 6.73948 81.9908 6.80824C82.3364 6.877 82.654 7.04672 82.9032 7.29594C83.1524 7.54515 83.3221 7.86267 83.3909 8.20835C83.4596 8.55402 83.4243 8.91232 83.2895 9.23794C83.1546 9.56356 82.9262 9.84187 82.6331 10.0377C82.3401 10.2335 81.9956 10.338 81.6431 10.338C81.172 10.3333 80.7214 10.1441 80.3882 9.81088C80.0551 9.4777 79.8658 9.02716 79.8611 8.556ZM80.1611 11.209H83.1321V21.109H80.1571L80.1611 11.209Z" fill="#AAAAAA"/>
<path d="M95.9559 16.159C95.9902 16.8133 95.8949 17.4679 95.6753 18.0852C95.4558 18.7025 95.1164 19.2703 94.6766 19.756C94.2369 20.2416 93.7054 20.6356 93.1129 20.9152C92.5203 21.1947 91.8784 21.3544 91.2239 21.385C90.6735 21.415 90.1234 21.3222 89.6133 21.1133C89.1032 20.9043 88.6461 20.5845 88.2749 20.177V25.068H85.3049V11.209H88.2749V12.139C88.6462 11.7318 89.1035 11.4122 89.6135 11.2035C90.1236 10.9947 90.6736 10.902 91.2239 10.932C91.8785 10.9625 92.5206 11.1221 93.1133 11.4017C93.706 11.6813 94.2375 12.0753 94.6773 12.5611C95.1171 13.0469 95.4565 13.6149 95.6759 14.2324C95.8953 14.8498 95.9905 15.5046 95.9559 16.159ZM92.9859 16.159C92.9743 15.6957 92.8263 15.2461 92.5604 14.8664C92.2945 14.4868 91.9226 14.194 91.4912 14.0248C91.0597 13.8555 90.5879 13.8172 90.1348 13.9148C89.6817 14.0123 89.2675 14.2413 88.9439 14.5731C88.6203 14.905 88.4018 15.3248 88.3157 15.7803C88.2296 16.2357 88.2797 16.7063 88.4598 17.1334C88.6398 17.5605 88.9419 17.9249 89.3281 18.1812C89.7143 18.4374 90.1674 18.5741 90.6309 18.574C90.9491 18.5882 91.2667 18.5349 91.5629 18.4177C91.859 18.3006 92.1271 18.1221 92.3494 17.8941C92.5718 17.666 92.7434 17.3936 92.8531 17.0946C92.9628 16.7956 93.0081 16.4767 92.9859 16.159Z" fill="#AAAAAA"/>
<path d="M105.121 18.138C105.121 20.415 103.142 21.385 101.004 21.385C100.14 21.4632 99.2728 21.2806 98.5139 20.8605C97.755 20.4405 97.1396 19.8025 96.7471 19.029L99.3201 17.564C99.4242 17.9215 99.6478 18.2326 99.9535 18.4451C100.259 18.6577 100.629 18.759 101 18.732C101.712 18.732 102.069 18.514 102.069 18.119C102.069 17.029 97.1981 17.604 97.1981 14.179C97.1981 12.02 99.0201 10.932 101.079 10.932C101.853 10.9075 102.619 11.0911 103.298 11.4636C103.977 11.8362 104.544 12.384 104.939 13.05L102.405 14.416C102.294 14.1567 102.109 13.9358 101.873 13.7809C101.637 13.626 101.361 13.544 101.079 13.545C100.564 13.545 100.247 13.745 100.247 14.099C100.251 15.228 105.121 14.475 105.121 18.138Z" fill="#AAAAAA"/>
<path d="M115.97 11.209V21.109H113V20.178C112.657 20.5888 112.222 20.9125 111.73 21.1225C111.238 21.3325 110.704 21.4228 110.17 21.386C108.17 21.386 106.47 19.961 106.47 17.286V11.209H109.44V16.851C109.415 17.0868 109.442 17.3252 109.519 17.5495C109.595 17.7739 109.72 17.9789 109.884 18.1502C110.048 18.3215 110.247 18.455 110.468 18.5415C110.688 18.628 110.925 18.6654 111.162 18.651C112.251 18.651 113.003 18.018 113.003 16.612V11.212L115.97 11.209Z" fill="#AAAAAA"/>
<path d="M133 15.03V21.108H130.03V15.287C130.03 14.297 129.555 13.664 128.605 13.664C127.615 13.664 127.06 14.357 127.06 15.525V21.108H124.091V15.287C124.091 14.297 123.616 13.664 122.665 13.664C121.675 13.664 121.121 14.357 121.121 15.525V21.108H118.151V11.208H121.121V12.118C121.429 11.7143 121.833 11.3941 122.296 11.1868C122.76 10.9794 123.268 10.8915 123.774 10.931C124.282 10.9061 124.788 11.0134 125.243 11.2423C125.697 11.4711 126.084 11.8139 126.367 12.237C126.696 11.7943 127.132 11.4423 127.634 11.2139C128.136 10.9855 128.688 10.8882 129.238 10.931C131.511 10.932 133 12.555 133 15.03Z" fill="#AAAAAA"/>
<path d="M135.512 11.148C136.729 11.148 137.716 10.1612 137.716 8.944C137.716 7.72676 136.729 6.74 135.512 6.74C134.295 6.74 133.308 7.72676 133.308 8.944C133.308 10.1612 134.295 11.148 135.512 11.148Z" fill="#AAAAAA"/>
</svg>
