<svg width="64" height="56" viewBox="0 0 64 56" fill="none" xmlns="http://www.w3.org/2000/svg">
<path d="M13.9443 47.8591H16.7709C16.7404 48.1437 16.6794 48.7029 16.476 49.0995C15.8355 50.4721 14.3612 51.2346 11.5652 51.2346C9.32835 51.2346 7.8744 50.6754 7.09152 49.7299C6.55264 49.0995 6.27808 48.2251 6.27808 47.1067C6.27808 46.09 6.53231 45.2461 7.04063 44.6258C7.85407 43.6091 9.31819 42.9991 11.616 42.9991C14.7475 42.9991 16.049 44.1175 16.5269 45.3071C16.6895 45.7239 16.7404 46.1917 16.7506 46.4458H13.924C13.9138 46.2628 13.8427 46.0289 13.7207 45.8561C13.4258 45.4291 12.7751 45.1139 11.5855 45.1139C10.5078 45.1139 9.72491 45.3884 9.36899 45.9476C9.18603 46.2222 9.11483 46.6289 9.11483 47.1372C9.11483 47.6862 9.20635 48.0625 9.39955 48.3369C9.79611 48.9266 10.6807 49.1503 11.5957 49.1503C12.6632 49.1503 13.4257 48.9368 13.7613 48.4488C13.8834 48.2759 13.9342 48.0726 13.9443 47.8591Z" fill="#AAAAAA"/>
<path d="M25.5018 48.9877V51.1126H17.8865V43.1313H20.6418V48.9877H25.5018Z" fill="#AAAAAA"/>
<path d="M34.9926 51.1126V49.13H29.2684V48.093H34.7588V46.151H29.2684V45.1241H34.9215V43.1313H26.5842V51.1126H34.9926Z" fill="#AAAAAA"/>
<path fill-rule="evenodd" clip-rule="evenodd" d="M43.3712 49.6384H39.0603L38.318 51.1126H35.4407L39.7008 43.1313H42.9848L47.0112 51.1126H44.0728L43.3712 49.6384ZM39.955 47.849H42.5072L41.5513 45.9171L41.2666 45.1952L40.9616 45.9273L39.955 47.849Z" fill="#AAAAAA"/>
<path fill-rule="evenodd" clip-rule="evenodd" d="M57.2287 45.5613C57.2287 44.8394 57.0559 44.3208 56.6895 43.9446C56.2119 43.4362 55.3879 43.1313 54.1279 43.1313H47.7727V51.1126H50.4879V48.2963H52.9583L54.9407 51.1126H57.9711L55.5615 47.8591C56.0999 47.7778 56.5375 47.4524 56.8215 47.066C57.0759 46.7102 57.2287 46.1814 57.2287 45.5613ZM54.5847 45.8154C54.5847 45.9476 54.5647 46.1103 54.4935 46.2323C54.3919 46.4357 54.1279 46.517 53.6903 46.517H50.4975V45.063H53.6391C54.0663 45.063 54.3511 45.1342 54.4935 45.3986C54.5647 45.5002 54.5847 45.663 54.5847 45.8154Z" fill="#AAAAAA"/>
<path d="M42.2369 6.78073C42.2369 6.91297 42.2169 7.07561 42.1457 7.19761C42.0441 7.40097 41.7793 7.48233 41.3422 7.48233H38.1497V6.02841H41.2913C41.7185 6.02841 42.0033 6.09953 42.1457 6.36393C42.2169 6.46561 42.2369 6.62825 42.2369 6.78073Z" fill="#AAAAAA"/>
<path d="M50.1855 8.81425H52.7375L51.7815 6.88239L51.4967 6.16055L51.1919 6.89263L50.1855 8.81425Z" fill="#AAAAAA"/>
<path fill-rule="evenodd" clip-rule="evenodd" d="M1.6333 6.76188C1.9625 3.52044 4.70002 0.990921 8.02834 0.990921H55.9721C59.5225 0.990921 62.4001 3.86892 62.4001 7.41916V47.6478C62.4001 51.198 59.5225 54.076 55.9721 54.076H8.02834C4.4781 54.076 1.6001 51.198 1.6001 47.6478V7.41916C1.6001 7.19724 1.61138 6.97804 1.6333 6.76188ZM2.9393 18.9706L24.5449 26.2777C25.1335 25.6805 25.9344 25.1614 26.8979 24.7569C27.1195 24.6638 27.3481 24.5776 27.5828 24.4982L18.5751 15.3587H25.6261L29.5844 24.0126C30.1071 23.9306 30.6445 23.8783 31.1892 23.8574C31.3704 23.8505 31.5516 23.847 31.7325 23.847V15.3587H37.8387L33.8804 24.0127C34.4902 24.1085 35.0822 24.245 35.6443 24.421C36.3677 24.6476 37.0262 24.9345 37.6007 25.271L54.5217 15.3587H61.0609V18.7894L36.2919 27.1665C35.7712 26.6382 34.9948 26.2122 34.0608 25.9424C33.1269 25.6726 32.0774 25.5711 31.0449 25.6507C30.0125 25.7303 29.0436 25.9875 28.2607 26.3897C27.4778 26.7919 26.916 27.3211 26.6465 27.9103C26.377 28.4995 26.4118 29.1223 26.7465 29.7C27.0812 30.2776 27.7009 30.7842 28.527 31.1556C29.3531 31.5269 30.3487 31.7463 31.3879 31.7862C31.9652 31.8084 32.5417 31.7746 33.0947 31.6878C33.5367 31.6184 33.9642 31.5151 34.3647 31.3796L42.5737 39.7082H36.7639L33.88 33.4046C32.4715 33.6257 30.9899 33.6252 29.5844 33.4046L26.7011 39.7082H20.8914L27.5827 32.919C26.9563 32.7071 26.378 32.4476 25.8638 32.1464L12.9552 39.7082H2.9393V38.4467L24.5448 31.1395C24.0477 30.6351 23.7071 30.0802 23.5437 29.5006C23.3506 28.8154 23.411 28.1164 23.7157 27.4503L2.9393 24.1892V18.9706ZM61.0609 38.6278L31.7325 28.7086L61.0609 33.3121V38.6278ZM61.0609 41.0474H2.9393V47.6478C2.9393 50.4583 5.2177 52.7367 8.02834 52.7367H55.9721C58.7825 52.7367 61.0609 50.4583 61.0609 47.6478V41.0474ZM17.2024 8.99728V4.0966H14.4775V8.7532C14.4775 9.58696 13.7048 10.1462 12.4035 10.1462C11.041 10.1462 10.2987 9.60728 10.2987 8.74304V4.0966H7.54338V8.74304C7.54338 11.1629 9.5261 12.1898 12.2916 12.1898C15.2503 12.1898 17.2024 11.1527 17.2024 8.99728ZM26.3791 12.078V9.95296H21.5191V4.0966H18.7638V12.078H26.3791ZM34.5678 4.0966V6.09956H31.1923V12.078H28.4063V6.09956H25.041V4.0966H34.5678ZM44.8801 6.5266C44.8801 5.80476 44.7073 5.2862 44.3417 4.90996C43.8641 4.40164 43.0401 4.0966 41.7793 4.0966H35.4248V12.078H38.1395V9.2616H40.6102L42.5929 12.078H45.6225L43.2129 8.8244C43.7521 8.74304 44.1889 8.41768 44.4737 8.03136C44.7281 7.67556 44.8801 7.14684 44.8801 6.5266ZM53.6017 10.6037H49.2905L48.5489 12.078H45.6713L49.9313 4.0966H53.2153L57.2417 12.078H54.3033L53.6017 10.6037Z" fill="#AAAAAA"/>
</svg>
