<svg width="96" height="24" viewBox="0 0 96 24" fill="none" xmlns="http://www.w3.org/2000/svg">
<path d="M2.35254 22.26H22.8726V1.74001H2.35254V22.26ZM18.923 10.0256H14.587V5.68961H18.923V10.0256ZM6.30134 5.68961H10.6398V13.9744H18.923V18.3104H6.30134V5.68961ZM36.235 1.74001C34.2057 1.74001 32.222 2.34175 30.5348 3.46913C28.8475 4.59652 27.5325 6.19891 26.7559 8.07369C25.9794 9.94849 25.7762 12.0114 26.1721 14.0016C26.568 15.9918 27.5451 17.82 28.98 19.2549C30.4149 20.6898 32.243 21.667 34.2333 22.0629C36.2236 22.4587 38.2865 22.2556 40.1613 21.479C42.0361 20.7025 43.6384 19.3874 44.7658 17.7002C45.8932 16.0129 46.495 14.0292 46.495 12C46.4918 9.27984 45.4098 6.67204 43.4863 4.74861C41.5629 2.82517 38.9551 1.74318 36.235 1.74001ZM36.235 18.3104C34.9869 18.3104 33.7668 17.9403 32.729 17.2469C31.6914 16.5535 30.8825 15.568 30.4049 14.4149C29.9273 13.2618 29.8023 11.993 30.0458 10.7689C30.2893 9.5448 30.8903 8.42041 31.7728 7.53788C32.6554 6.65536 33.7798 6.05435 35.0038 5.81086C36.2279 5.56737 37.4967 5.69234 38.6498 6.16996C39.8029 6.64757 40.7885 7.4564 41.4818 8.49416C42.1753 9.53184 42.5454 10.7519 42.5454 12C42.5428 13.6729 41.8771 15.2765 40.6942 16.4594C39.5114 17.6422 37.9078 18.3078 36.235 18.3104ZM83.2102 1.74001C81.1806 1.73985 79.1971 2.34145 77.5098 3.46874C75.8224 4.59603 74.5073 6.19837 73.7306 8.07313C72.9539 9.94785 72.7506 12.0109 73.1464 14.0011C73.5422 15.9914 74.5193 17.8197 75.9542 19.2546C77.389 20.6896 79.2171 21.6669 81.2078 22.0628C83.1974 22.4587 85.2606 22.2556 87.1358 21.4791C89.0102 20.7026 90.6126 19.3875 91.7398 17.7002C92.8678 16.013 93.4694 14.0293 93.4694 12C93.4662 9.28 92.3846 6.67229 90.4614 4.74889C88.5382 2.82547 85.9302 1.7434 83.2102 1.74001ZM83.2102 18.3104C81.9622 18.3106 80.7422 17.9406 79.7041 17.2473C78.6662 16.554 77.8573 15.5685 77.3795 14.4154C76.9018 13.2624 76.7767 11.9935 77.0201 10.7694C77.2635 9.54529 77.8645 8.42081 78.747 7.53817C79.6294 6.65556 80.7542 6.05447 81.9782 5.81092C83.2022 5.56737 84.471 5.69229 85.6238 6.16989C86.7774 6.64748 87.763 7.45629 88.4566 8.49409C89.1494 9.53185 89.5198 10.7519 89.5198 12C89.5174 13.6727 88.8518 15.2762 87.6686 16.459C86.4862 17.6419 84.883 18.3077 83.2102 18.3104ZM59.7222 1.74001C57.6929 1.74001 55.7092 2.34175 54.022 3.46913C52.3347 4.59652 51.0197 6.19891 50.2431 8.07369C49.4666 9.94849 49.2634 12.0114 49.6593 14.0016C50.0552 15.9918 51.0323 17.82 52.4672 19.2549C53.9021 20.6898 55.7302 21.667 57.7205 22.0629C59.7107 22.4587 61.7737 22.2556 63.6485 21.479C65.5233 20.7025 67.1256 19.3874 68.253 17.7002C69.3804 16.0129 69.9822 14.0292 69.9822 12C69.979 9.27984 68.897 6.67204 66.9735 4.74861C65.0501 2.82517 62.4423 1.74318 59.7222 1.74001ZM59.7222 18.3104C58.5593 18.311 57.419 17.9902 56.4269 17.3836C55.4349 16.777 54.6297 15.9081 54.1003 14.8727C53.571 13.8374 53.338 12.6758 53.4271 11.5165C53.5162 10.357 53.9239 9.24481 54.6053 8.30249C55.2866 7.36021 56.2151 6.62449 57.2882 6.17657C58.3613 5.72865 59.5373 5.58594 60.6863 5.7642C61.8354 5.94246 62.9129 6.43475 63.7998 7.18674C64.6868 7.93873 65.3487 8.9212 65.7126 10.0256H59.7222V13.9744H65.7126C65.2958 15.2346 64.493 16.3318 63.4177 17.11C62.3425 17.8883 61.0495 18.3082 59.7222 18.3104Z" fill="#AAAAAA"/>
</svg>
