<svg width="125" height="32" viewBox="0 0 125 32" fill="none" xmlns="http://www.w3.org/2000/svg">
<path d="M23.0171 13.5002C25.4079 13.5002 25.9458 14.5387 25.9458 15.8339C25.9458 17.2069 25.2952 18.1905 23.027 18.1905C20.7733 18.1905 20.1218 17.264 20.1218 15.8339C20.1218 14.4267 20.8319 13.5002 23.0171 13.5002Z" fill="#AAAAAA"/>
<path d="M48.0031 13.5002C50.394 13.5002 50.9319 14.5387 50.9319 15.8339C50.9319 17.2069 50.2805 18.1905 48.0131 18.1905C45.7601 18.1905 45.1079 17.264 45.1079 15.8339C45.1079 14.4267 45.818 13.5002 48.0031 13.5002Z" fill="#AAAAAA"/>
<path fill-rule="evenodd" clip-rule="evenodd" d="M1.84888 29.3333V2.32152H122.67V29.3333H1.84888ZM59.4321 27.8095H121.147V3.84533H59.4321V27.8095ZM23.0285 20.4899C27.2731 20.4899 29.0574 18.659 29.0574 15.7996C29.0574 12.8937 27.0475 11.1665 23.0285 11.1665C19.0712 11.1665 16.9881 13.0423 16.9881 15.7996C16.9881 18.9112 19.1732 20.4899 23.0285 20.4899ZM8.27115 11.3722V20.3528H16.838V17.9611H11.3706V11.3722H8.27115ZM38.6452 20.3528L38.5652 19.4827C37.5284 20.2226 36.2664 20.5787 34.9957 20.4899C33.0856 20.4899 31.4948 19.9177 30.6026 18.7627C30.0141 17.9194 29.7169 16.9071 29.7561 15.8796C29.7227 14.8737 30.0301 13.8859 30.6285 13.0766C31.5313 11.9558 33.1679 11.2122 35.6045 11.2122C38.4075 11.2122 40.0548 12.0701 40.7633 13.5116C40.9154 13.8511 41.0048 14.2153 41.027 14.5867H38.0616C37.9869 14.361 37.8478 14.1621 37.6616 14.0145C37.0709 13.6229 36.3656 13.4417 35.6593 13.5002C35.2451 13.45 34.8248 13.4882 34.4265 13.6125C34.0282 13.7368 33.6607 13.9441 33.3485 14.2209C32.9939 14.7063 32.8274 15.3038 32.8799 15.9025C32.8388 16.4737 32.9918 17.0421 33.3142 17.5154C33.6292 17.809 34.0038 18.0313 34.4123 18.1675C34.8209 18.3037 35.2539 18.3505 35.6822 18.3048C36.5327 18.3739 37.3771 18.1116 38.0388 17.5726C38.1809 17.3949 38.2788 17.186 38.3245 16.963H35.1336V15.0331H41.1047V20.3528H38.6452ZM48.0144 20.4899C52.2582 20.4899 54.0433 18.659 54.0433 15.7996C54.0433 12.8937 52.0303 11.1665 48.0144 11.1665C44.0571 11.1665 41.974 13.0423 41.974 15.7996C41.974 18.9112 44.1592 20.4899 48.0144 20.4899Z" fill="#AAAAAA"/>
<path d="M64.6528 20.3185V11.3379H66.8624V20.3185H64.6528Z" fill="#AAAAAA"/>
<path d="M78.2087 16.5661C77.6487 17.2983 76.6849 17.6328 75.3264 17.6411C75.04 17.6411 71.2419 17.6297 71.2419 17.6297V20.3185H69.0796V11.3379H75.3272C75.8279 11.285 76.3345 11.3381 76.8129 11.4937C77.2922 11.6495 77.7325 11.9042 78.1066 12.2415C78.6004 12.8847 78.8404 13.6867 78.7817 14.4952C78.832 15.2306 78.6301 15.9612 78.2087 16.5661ZM76.4358 13.6381C76.2072 13.2952 75.7143 13.1048 74.88 13.1048H71.2304V15.8385H74.8564C75.7485 15.8385 76.2186 15.6556 76.4358 15.3006C76.5645 15.0504 76.6202 14.7688 76.5958 14.4884C76.6148 14.196 76.56 13.9035 76.4358 13.6381Z" fill="#AAAAAA"/>
<path d="M85.1536 20.4556C81.0805 20.4556 79.834 18.9318 79.834 17.424H82.1448C82.1448 18.1676 83.1627 18.7284 85.2565 18.7284C87.338 18.7284 87.8873 18.3619 87.8873 17.7669C87.8873 17.1032 87.4759 16.8975 85.5422 16.6804C85.1612 16.6461 84.1243 16.5204 83.7349 16.4632C80.9921 16.1539 79.9361 15.3417 79.9361 13.8888C79.9361 12.3558 81.4812 11.2008 84.8328 11.2008C88.4709 11.2008 89.8667 12.6309 89.8667 14.1181H87.581C87.581 13.363 86.7231 12.928 84.698 12.928C82.6157 12.928 82.17 13.2137 82.17 13.7745C82.17 14.3581 82.6271 14.5409 84.8366 14.8038C85.3403 14.8731 86.461 14.9989 86.7696 15.0324C89.1041 15.2724 90.1563 16.1189 90.1563 17.6175C90.1525 19.4027 88.5509 20.4556 85.1536 20.4556Z" fill="#AAAAAA"/>
<path d="M96.663 20.4442C93.6778 20.4442 91.7327 19.2655 91.7327 16.787V11.3379H93.917V16.8175C93.917 17.9505 94.8443 18.7048 96.7544 18.7048C98.4816 18.7048 99.5117 17.9962 99.5117 16.8175V11.3379H101.674V16.9905C101.674 19.2434 99.866 20.4442 96.663 20.4442Z" fill="#AAAAAA"/>
<path d="M113.514 20.3185V14.3238L110.711 20.3185H108.584L105.861 14.3238V20.3185H103.803V11.3379H106.591L109.679 18.179L112.837 11.3379H115.579V20.3185H113.514Z" fill="#AAAAAA"/>
</svg>
