<svg width="127" height="48" viewBox="0 0 127 48" fill="none" xmlns="http://www.w3.org/2000/svg">
<path d="M25.7434 24.3407C25.7434 22.5884 26.7896 21.3677 28.3885 21.3677C29.9875 21.3677 31.0336 22.5884 31.0336 24.3407C31.0336 26.0734 29.9875 27.3138 28.3885 27.3138C26.7896 27.3138 25.7434 26.0734 25.7434 24.3407Z" fill="#AAAAAA"/>
<path d="M39.2656 21.2889C37.7457 21.2889 36.7192 22.4702 36.7192 24.0848C36.7192 25.719 37.7654 26.9397 39.2656 26.9397C40.9237 26.9397 42.0291 25.6993 42.0291 24.0848C42.0291 22.4899 40.9237 21.2889 39.2656 21.2889Z" fill="#AAAAAA"/>
<path d="M48.0767 24.3407C48.0767 22.5884 49.1229 21.3677 50.7218 21.3677C52.3207 21.3677 53.3669 22.5884 53.3669 24.3407C53.3669 26.0734 52.3207 27.3138 50.7218 27.3138C49.1229 27.3138 48.0767 26.0734 48.0767 24.3407Z" fill="#AAAAAA"/>
<path d="M64.1626 24.3604C64.1626 22.6081 65.2285 21.3874 66.9063 21.3874C68.5842 21.3874 69.5909 22.6278 69.5909 24.3604C69.5909 26.0931 68.5842 27.3138 66.9063 27.3138C65.2285 27.3138 64.1626 26.1128 64.1626 24.3604Z" fill="#AAAAAA"/>
<path fill-rule="evenodd" clip-rule="evenodd" d="M63.1577 44.9393C96.6971 44.9393 123.886 35.4231 123.886 23.6842C123.886 11.9453 96.6971 2.42917 63.1577 2.42917C29.6182 2.42917 2.42896 11.9453 2.42896 23.6842C2.42896 35.4231 29.6182 44.9393 63.1577 44.9393ZM21.8412 29.2237V14.5749H19.433V29.2237H21.8412ZM23.3152 24.3407C23.3152 27.3335 25.3286 29.46 28.3883 29.46C31.4479 29.46 33.4613 27.3335 33.4613 24.3407C33.4613 21.348 31.4479 19.2216 28.3883 19.2216C25.3286 19.2216 23.3152 21.348 23.3152 24.3407ZM38.8508 29.0268C36.107 29.0268 34.2712 26.9791 34.2712 24.1438C34.2712 21.2889 36.1465 19.1821 38.9297 19.1821C40.3707 19.1821 41.5946 19.7926 42.1867 20.8164L42.3249 19.4972H44.4568V28.7314C44.4568 31.9408 42.4434 34.0081 39.2851 34.0081C36.6005 34.0081 34.6463 32.3543 34.3305 29.8143H36.7585C36.8966 31.0941 37.9231 31.8226 39.4232 31.8226C41.1011 31.8226 42.1078 30.7594 42.1078 29.1645V27.5107C41.4959 28.4557 40.2721 29.0268 38.8508 29.0268ZM45.6486 24.3407C45.6486 27.3335 47.662 29.46 50.7217 29.46C53.7813 29.46 55.7947 27.3335 55.7947 24.3407C55.7947 21.348 53.7813 19.2216 50.7217 19.2216C47.662 19.2216 45.6486 21.348 45.6486 24.3407ZM59.8419 16.0713C59.8419 16.8786 59.1905 17.5086 58.4009 17.5086C57.5916 17.5086 56.9797 16.8786 56.9797 16.0713C56.9797 15.2837 57.5916 14.6536 58.4009 14.6536C59.1905 14.6536 59.8419 15.2837 59.8419 16.0713ZM59.605 19.4972V29.2237H57.1969V19.4972H59.605ZM61.7148 33.7325H64.0639V27.8848C64.6758 28.8889 65.9983 29.4796 67.4591 29.4796C70.341 29.4796 72.0583 27.2744 72.0188 24.2423C71.9596 21.1905 70.2028 19.2018 67.4393 19.2018C65.9589 19.2018 64.6166 19.8516 64.0244 20.9739L63.8862 19.4972H61.7148V33.7325ZM76.5387 29.4796C74.2095 29.4796 72.7093 28.2392 72.6304 26.3096H74.8214C74.8214 27.1563 75.4333 27.6485 76.4993 27.6485C77.3876 27.6485 78.1179 27.2941 78.1179 26.5262C78.1179 25.9749 77.7231 25.6796 77.0914 25.5024L75.3939 25.0692C73.5186 24.577 72.7883 23.5335 72.7883 22.2733C72.7883 20.4226 74.3477 19.2018 76.4401 19.2018C78.5521 19.2018 79.9931 20.4226 80.0721 22.3522H77.8811C77.8811 21.5055 77.2888 20.9936 76.3809 20.9936C75.5123 20.9936 74.9793 21.4661 74.9793 22.1356C74.9793 22.7656 75.4728 23.0216 76.2032 23.2184L77.9206 23.6319C79.5195 24.0257 80.3879 24.9708 80.3879 26.3688C80.3879 28.2589 78.8285 29.4796 76.5387 29.4796ZM85.3834 29.4796C86.7055 29.4796 87.9686 28.8692 88.5413 27.9635L88.6996 29.2237H90.9497V19.4972H88.5413V24.5967C88.5413 26.349 87.8701 27.3335 86.2912 27.3335C85.0676 27.3335 84.2188 26.7428 84.2188 24.7346V19.4972H81.8102V25.5811C81.8102 27.9045 83.0736 29.4796 85.3834 29.4796ZM95.4836 23.6319V29.2237H93.0752V19.4972H95.2857L95.4044 20.5998C95.9771 19.7335 97.0036 19.2018 98.148 19.2018C99.7665 19.2018 100.833 19.9106 101.366 21.0526C101.84 19.9106 103.004 19.2018 104.485 19.2018C106.854 19.2018 108.097 20.6195 108.097 22.8641V29.2237H105.767V23.4153C105.767 22.0371 105.018 21.3086 103.853 21.3086C102.708 21.3086 101.8 22.0568 101.8 23.6516V29.2237H99.4507V23.4153C99.4507 22.0371 98.7013 21.3086 97.556 21.3086C96.4116 21.3086 95.4836 22.0568 95.4836 23.6319Z" fill="#AAAAAA"/>
</svg>
