<svg width="147" height="31" viewBox="0 0 147 31" fill="none" xmlns="http://www.w3.org/2000/svg">
<path d="M95.576 23.9361H93.808L92.288 28.5761H92.24L90.84 23.9361H89L90.88 30.1761H93.536L95.576 23.9361Z" fill="#999999"/>
<path d="M103.138 30.1761H104.818V23.9361H103.138V30.1761Z" fill="#999999"/>
<path d="M114.495 25.3761H115.863C116.999 25.3761 117.127 25.5441 117.127 27.0561C117.127 28.5681 116.999 28.7361 115.863 28.7361H114.495L114.487 27.0561L114.495 25.3761ZM112.815 30.1761H116.039C118.319 30.1761 118.887 29.5521 118.887 27.0561C118.887 24.5601 118.319 23.9361 116.039 23.9361H112.815V30.1761Z" fill="#999999"/>
<path d="M126.726 23.9361V30.1761H131.862V28.7361H128.406V27.6961H131.526V26.3361H128.406V25.3761H131.846V23.9361H126.726Z" fill="#999999"/>
<path d="M142.787 25.2001C144.123 25.2001 144.267 25.3841 144.267 27.0561C144.267 28.7281 144.123 28.9121 142.787 28.9121C141.451 28.9121 141.307 28.7281 141.307 27.0561C141.307 25.3841 141.451 25.2001 142.787 25.2001ZM139.547 27.0561C139.547 29.6321 140.195 30.2721 142.787 30.2721C145.379 30.2721 146.027 29.6321 146.027 27.0561C146.027 24.4801 145.379 23.8401 142.787 23.8401C140.195 23.8401 139.547 24.4801 139.547 27.0561Z" fill="#999999"/>
<path d="M0 23.9361L0 30.1761H1.68L1.68 28.1361H3.712C5.264 28.0561 5.648 27.6321 5.648 26.0161C5.648 24.3521 5.232 23.9361 3.568 23.9361H0ZM1.68 26.6961L1.68 25.2961H3.136C3.888 25.2961 3.968 25.3681 3.968 26.0241C3.968 26.6321 3.888 26.6961 3.136 26.6961H1.68Z" fill="#AAAAAA"/>
<path d="M12.6091 30.1761H14.2891V27.7121H16.6891V30.1761H18.3691V23.9361H16.6891V26.2721H14.2891V23.9361H12.6091V30.1761Z" fill="#AAAAAA"/>
<path d="M28.5716 25.2001C29.9076 25.2001 30.0516 25.3841 30.0516 27.0561C30.0516 28.7281 29.9076 28.9121 28.5716 28.9121C27.2356 28.9121 27.0916 28.7281 27.0916 27.0561C27.0916 25.3841 27.2356 25.2001 28.5716 25.2001ZM25.3316 27.0561C25.3316 29.6321 25.9796 30.2721 28.5716 30.2721C31.1636 30.2721 31.8116 29.6321 31.8116 27.0561C31.8116 24.4801 31.1636 23.8401 28.5716 23.8401C25.9796 23.8401 25.3316 24.4801 25.3316 27.0561Z" fill="#AAAAAA"/>
<path d="M40.3245 30.1761H42.0045V25.3761H43.9325V23.9361H38.4125V25.3761H40.3245V30.1761Z" fill="#AAAAAA"/>
<path d="M53.7741 25.2001C55.1101 25.2001 55.2541 25.3841 55.2541 27.0561C55.2541 28.7281 55.1101 28.9121 53.7741 28.9121C52.4381 28.9121 52.2941 28.7281 52.2941 27.0561C52.2941 25.3841 52.4381 25.2001 53.7741 25.2001ZM50.5341 27.0561C50.5341 29.6321 51.1821 30.2721 53.7741 30.2721C56.3661 30.2721 57.0141 29.6321 57.0141 27.0561C57.0141 24.4801 56.3661 23.8401 53.7741 23.8401C51.1821 23.8401 50.5341 24.4801 50.5341 27.0561Z" fill="#AAAAAA"/>
<path d="M0 0.239072L0 15.7787H4.18375V10.6984H9.24409C13.1091 10.4992 14.0654 9.44332 14.0654 5.41895C14.0654 1.27505 13.0294 0.239072 8.88548 0.239072L0 0.239072ZM4.18375 7.11237V3.62592H7.80966C9.68239 3.62592 9.88161 3.80522 9.88161 5.43887C9.88161 6.95299 9.68239 7.11237 7.80966 7.11237L4.18375 7.11237Z" fill="white"/>
<path d="M15.6618 0.239072L15.6618 15.7787H28.4521V12.1926H19.8456V9.6027H27.6154V6.21585L19.8456 6.21585V3.82514L28.4123 3.82514V0.239072L15.6618 0.239072Z" fill="white"/>
<path d="M39.139 0.239072L30.2536 0.239072V15.7787H34.4373V10.3H37.5452C39.7168 10.3 39.936 10.4793 39.936 12.1926V15.7787L44.3189 15.7787V11.9536C44.3189 9.9613 43.263 9.04486 41.1911 8.82571C43.3626 8.52688 44.3189 7.3116 44.3189 4.74158C44.3189 1.13559 43.283 0.239072 39.139 0.239072ZM34.4373 7.11237V3.62592H38.0632C39.936 3.62592 40.1352 3.80522 40.1352 5.33926C40.1352 6.93307 39.936 7.11237 38.0632 7.11237L34.4373 7.11237Z" fill="white"/>
<path d="M61.55 9.18432H57.167C57.2068 12.2922 56.8482 12.6309 53.6606 12.6309C50.4531 12.6309 50.0945 12.1727 50.0945 8.00889C50.0945 3.84506 50.4531 3.38684 53.6606 3.38684C56.8482 3.38684 57.2068 3.72553 57.167 6.79361H61.55C61.5898 1.35474 60.0159 0 53.6606 0C47.3053 0 45.7115 1.59381 45.7115 8.00889C45.7115 14.424 47.3053 16.0178 53.6606 16.0178C60.0159 16.0178 61.5898 14.6431 61.55 9.18432Z" fill="white"/>
<path d="M63.1531 0.239072V15.7787L75.9434 15.7787V12.1926L67.3368 12.1926V9.6027L75.1067 9.6027V6.21585H67.3368V3.82514L75.9036 3.82514V0.239072L63.1531 0.239072Z" fill="white"/>
<path d="M77.7449 0.239072V15.7787H81.9286V10.6984H86.9889C90.8539 10.4992 91.8102 9.44332 91.8102 5.41895C91.8102 1.27505 90.7742 0.239072 86.6303 0.239072L77.7449 0.239072ZM81.9286 7.11237V3.62592L85.5545 3.62592C87.4272 3.62592 87.6265 3.80522 87.6265 5.43887C87.6265 6.95299 87.4272 7.11237 85.5545 7.11237H81.9286Z" fill="white"/>
<path d="M97.2716 15.7787H101.455V3.82514L106.257 3.82514V0.239072L92.5101 0.239072V3.82514H97.2716V15.7787Z" fill="white"/>
<path d="M107.356 15.7787H111.54V0.239072L107.356 0.239072V15.7787Z" fill="white"/>
<path d="M121.194 3.38684C124.521 3.38684 124.88 3.84506 124.88 8.00889C124.88 12.1727 124.521 12.6309 121.194 12.6309C117.867 12.6309 117.508 12.1727 117.508 8.00889C117.508 3.84506 117.867 3.38684 121.194 3.38684ZM113.125 8.00889C113.125 14.424 114.739 16.0178 121.194 16.0178C127.649 16.0178 129.263 14.424 129.263 8.00889C129.263 1.59381 127.649 0 121.194 0C114.739 0 113.125 1.59381 113.125 8.00889Z" fill="white"/>
<path d="M130.859 15.7787H135.043V7.3116H135.162L142.055 15.7787H146V0.239072L141.816 0.239072V8.7261H141.697L134.823 0.239072L130.859 0.239072V15.7787Z" fill="white"/>
<path d="M73 22.8401L77 26.8401L73 30.8401L69 26.8401L73 22.8401Z" fill="#AAAAAA"/>
</svg>
